<svg width="18" height="18" viewBox="0 0 18 18" fill="none" xmlns="http://www.w3.org/2000/svg">
<path d="M10.2368 9.01489L15.4934 3.75799C15.8355 3.41605 15.8355 2.86318 15.4934 2.52124C15.1515 2.1793 14.5986 2.1793 14.2567 2.52124L8.99992 7.77814L3.74329 2.52124C3.4012 2.1793 2.8485 2.1793 2.50657 2.52124C2.16448 2.86318 2.16448 3.41605 2.50657 3.75799L7.7632 9.01489L2.50657 14.2718C2.16448 14.6137 2.16448 15.1666 2.50657 15.5085C2.67697 15.6791 2.90103 15.7648 3.12493 15.7648C3.34883 15.7648 3.57273 15.6791 3.74329 15.5085L8.99992 10.2516L14.2567 15.5085C14.4273 15.6791 14.6512 15.7648 14.8751 15.7648C15.099 15.7648 15.3229 15.6791 15.4934 15.5085C15.8355 15.1666 15.8355 14.6137 15.4934 14.2718L10.2368 9.01489Z" fill="#f83e0b"/>
</svg>
